<svg width="22" height="16" viewBox="0 0 22 16" fill="none" xmlns="http://www.w3.org/2000/svg">
<path d="M22 8C22 8 17.875 0 11 0C4.125 0 0 8 0 8C0 8 4.125 16 11 16C17.875 16 22 8 22 8ZM1.61287 8C2.27771 6.93109 3.04238 5.93554 3.89538 5.02836C5.665 3.15345 8.085 1.45455 11 1.45455C13.915 1.45455 16.3336 3.15345 18.106 5.02836C18.959 5.93554 19.7237 6.93109 20.3885 8C20.3088 8.12655 20.2208 8.26618 20.1204 8.41891C19.6597 9.11709 18.9791 10.048 18.106 10.9716C16.3336 12.8465 13.9136 14.5455 11 14.5455C8.085 14.5455 5.66638 12.8465 3.894 10.9716C3.04101 10.0645 2.27634 9.06891 1.6115 8H1.61287Z" fill="#C4C4C4"/>
<path d="M11 4.3647C10.0883 4.3647 9.21398 4.74782 8.56932 5.42977C7.92466 6.11172 7.5625 7.03664 7.5625 8.00107C7.5625 8.96549 7.92466 9.89041 8.56932 10.5724C9.21398 11.2543 10.0883 11.6374 11 11.6374C11.9117 11.6374 12.786 11.2543 13.4307 10.5724C14.0753 9.89041 14.4375 8.96549 14.4375 8.00107C14.4375 7.03664 14.0753 6.11172 13.4307 5.42977C12.786 4.74782 11.9117 4.3647 11 4.3647ZM6.1875 8.00107C6.1875 6.65087 6.69453 5.35598 7.59705 4.40125C8.49957 3.44652 9.72365 2.91016 11 2.91016C12.2764 2.91016 13.5004 3.44652 14.403 4.40125C15.3055 5.35598 15.8125 6.65087 15.8125 8.00107C15.8125 9.35126 15.3055 10.6462 14.403 11.6009C13.5004 12.5556 12.2764 13.092 11 13.092C9.72365 13.092 8.49957 12.5556 7.59705 11.6009C6.69453 10.6462 6.1875 9.35126 6.1875 8.00107Z" fill="#C4C4C4"/>
</svg>
